HIERARCHY
ROOT Hips
{
	OFFSET 0.000000 0.000000 0.000000
	CHANNELS 6 Xposition Yposition Zposition Zrotation Yrotation Xrotation 
	JOINT LHipJoint
	{
		OFFSET 0.000000 0.000000 0.000000
		CHANNELS 3 Zrotation Yrotation Xrotation
		JOINT LeftUpLeg
		{
			OFFSET 1.363060 -1.794630 0.839290
			CHANNELS 3 Zrotation Yrotation Xrotation
			JOINT LeftLeg
			{
				OFFSET 2.448110 -6.726130 0.000000
				CHANNELS 3 Zrotation Yrotation Xrotation
				JOINT LeftFoot
				{
					OFFSET 2.562200 -7.039590 0.000000
					CHANNELS 3 Zrotation Yrotation Xrotation
					JOINT LeftToeBase
					{
						OFFSET 0.157640 -0.433110 2.322550
						CHANNELS 3 Zrotation Yrotation Xrotation
						End Site
						{
							OFFSET 0.000000 0.000000 0.000000
						}
					}
				}
			}
		}
	}
	JOINT RHipJoint
	{
		OFFSET 0.000000 0.000000 0.000000
		CHANNELS 3 Zrotation Yrotation Xrotation
		JOINT RightUpLeg
		{
			OFFSET -1.305520 -1.794630 0.839290
			CHANNELS 3 Zrotation Yrotation Xrotation
			JOINT RightLeg
			{
				OFFSET -2.542530 -6.985550 0.000000
				CHANNELS 3 Zrotation Yrotation Xrotation
				JOINT RightFoot
				{
					OFFSET -2.568260 -7.056230 0.000000
					CHANNELS 3 Zrotation Yrotation Xrotation
					JOINT RightToeBase
					{
						OFFSET -0.164730 -0.452590 2.363150
						CHANNELS 3 Zrotation Yrotation Xrotation
						End Site
						{
							OFFSET 0.000000 0.000000 0.000000
						}
					}
				}
			}
		}
	}
	JOINT LowerBack
	{
		OFFSET 0.000000 0.000000 0.000000
		CHANNELS 3 Zrotation Yrotation Xrotation
		JOINT Spine
		{
			OFFSET 0.028270 2.035590 -0.193380
			CHANNELS 3 Zrotation Yrotation Xrotation
			JOINT Spine1
			{
				OFFSET 0.056720 2.048850 -0.042750
				CHANNELS 3 Zrotation Yrotation Xrotation
				JOINT Neck
				{
					OFFSET 0.000000 0.000000 0.000000
					CHANNELS 3 Zrotation Yrotation Xrotation
					JOINT Neck1
					{
						OFFSET -0.054170 1.746240 0.172020
						CHANNELS 3 Zrotation Yrotation Xrotation
						JOINT Head
						{
							OFFSET 0.104070 1.761360 -0.123970
							CHANNELS 3 Zrotation Yrotation Xrotation
							End Site
							{
								OFFSET 0.000000 0.000000 0.000000
							}
						}
					}
				}
				JOINT LeftShoulder
				{
					OFFSET 0.000000 0.000000 0.000000
					CHANNELS 3 Zrotation Yrotation Xrotation
					JOINT LeftArm
					{
						OFFSET 3.362410 1.200890 -0.311210
						CHANNELS 3 Zrotation Yrotation Xrotation
						JOINT LeftForeArm
						{
							OFFSET 4.983000 -0.000000 -0.000000
							CHANNELS 3 Zrotation Yrotation Xrotation
							JOINT LeftHand
							{
								OFFSET 3.483560 -0.000000 -0.000000
								CHANNELS 3 Zrotation Yrotation Xrotation
								JOINT LeftFingerBase
								{
									OFFSET 0.000000 0.000000 0.000000
									CHANNELS 3 Zrotation Yrotation Xrotation
									JOINT LeftHandIndex1
									{
										OFFSET 0.715260 -0.000000 -0.000000
										CHANNELS 3 Zrotation Yrotation Xrotation
										End Site
										{
											OFFSET 0.000000 0.000000 0.000000
										}
									}
								}
								JOINT LThumb
								{
									OFFSET 0.000000 0.000000 0.000000
									CHANNELS 3 Zrotation Yrotation Xrotation
									End Site
									{
										OFFSET 0.000000 0.000000 0.000000
									}
								}
							}
						}
					}
				}
				JOINT RightShoulder
				{
					OFFSET 0.000000 0.000000 0.000000
					CHANNELS 3 Zrotation Yrotation Xrotation
					JOINT RightArm
					{
						OFFSET -3.136600 1.374050 -0.404650
						CHANNELS 3 Zrotation Yrotation Xrotation
						JOINT RightForeArm
						{
							OFFSET -5.241900 -0.000000 -0.000000
							CHANNELS 3 Zrotation Yrotation Xrotation
							JOINT RightHand
							{
								OFFSET -3.444170 -0.000000 -0.000000
								CHANNELS 3 Zrotation Yrotation Xrotation
								JOINT RightFingerBase
								{
									OFFSET 0.000000 0.000000 0.000000
									CHANNELS 3 Zrotation Yrotation Xrotation
									JOINT RightHandIndex1
									{
										OFFSET -0.622530 -0.000000 -0.000000
										CHANNELS 3 Zrotation Yrotation Xrotation
										End Site
										{
											OFFSET 0.000000 0.000000 0.000000
										}
									}
								}
								JOINT RThumb
								{
									OFFSET 0.000000 0.000000 0.000000
									CHANNELS 3 Zrotation Yrotation Xrotation
									End Site
									{
										OFFSET 0.000000 0.000000 0.000000
									}
								}
							}
						}
					}
				}
			}
		}
	}
}
MOTION
Frames: 11
Frame Time: 0.008333
-18.783068 16.173878 -2.405460 -62.128182 86.863203 -40.242630 -12.635762 4.461411 0.551593 -0.548948 6.738601 4.118838 -0.010000 0.855877 17.292533 0.967598 5.073945 15.662145 1.634400 0.000000 -87.545000 6.771425 -1.642410 6.238884 10.183265 11.314681 -57.919060 2.468026 -1.601040 25.421376 -1.366990 -6.299820 2.584638 -2.419799 -0.000000 -32.191800 9.928888 -4.761468 -6.093596 1.721389 -5.862695 -4.147834 -6.598709 -6.015027 0.711712 8.790474 -9.721033 -7.490383 -3.476385 -0.268003 0.070583 0.000000 0.000000 0.000000 -7.002740 -0.961150 2.302960 -58.050220 -25.486016 15.267486 -2.743360 -48.113265 -0.016664 4.619571 -1.065590 -0.054353 -0.140946 0.285253 -0.000000 0.000000 0.000000 0.000000 0.000000 0.000000 0.000000 14.321047 -10.254098 2.132450 52.450883 -13.543689 -27.852406 4.382274 2.330720 0.007330 -1.662083 3.476137 -0.056210 0.154840 -0.070415 -0.000000 0.000000 0.000000 0.000000 0.000000 0.000000 0.000000 
-18.569165 16.198153 -2.375092 -63.567236 86.547166 -41.693403 -12.810586 4.426022 0.612431 -0.024849 6.799459 3.240919 0.219950 0.946918 19.393034 1.117387 5.246517 17.930767 1.774000 0.000000 -85.072200 6.648568 -1.780681 6.187102 10.822566 11.562663 -57.513874 2.441727 -1.725770 26.542519 -1.396014 -6.336065 2.141325 -2.354400 -0.000000 -31.608700 10.334904 -4.692673 -6.139557 1.797505 -5.835673 -4.170241 -6.596053 -5.988280 0.684190 8.790566 -9.454884 -7.427215 -3.501721 -0.270678 0.088106 0.000000 0.000000 0.000000 -7.188494 -0.870344 2.279521 -58.566178 -24.685699 14.972514 -2.757576 -47.308284 -0.017918 5.016616 -1.161957 -0.063106 -0.141272 0.278607 -0.000000 0.000000 0.000000 0.000000 0.000000 0.000000 0.000000 14.350975 -10.012709 2.104354 52.422121 -12.851928 -27.356372 4.390861 2.440272 0.007436 -1.797342 3.569725 -0.062004 0.154689 -0.069842 -0.000000 0.000000 0.000000 0.000000 0.000000 0.000000 0.000000 
-18.358527 16.224686 -2.341913 -64.293300 86.234747 -42.442170 -12.950003 4.365137 0.657509 0.414290 6.915380 2.219904 0.423552 1.016878 21.707739 1.286075 5.538273 19.963126 1.953100 -0.000001 -81.565500 6.559461 -1.894635 6.137139 11.431296 11.769654 -56.998089 2.434903 -1.823848 27.500205 -1.410347 -6.264247 1.507256 -2.236100 -0.000001 -30.899200 10.667706 -4.613722 -6.173110 1.854075 -5.792459 -4.186631 -6.604406 -5.944738 0.663868 8.822731 -9.180402 -7.351765 -3.531912 -0.273802 0.109051 0.000000 0.000000 0.000000 -7.332568 -0.785660 2.252004 -59.068206 -23.891887 14.710551 -2.770124 -46.391775 -0.019101 5.431616 -1.245913 -0.072067 -0.141244 0.270773 -0.000000 0.000000 0.000000 0.000000 0.000000 0.000000 0.000000 14.436558 -9.766835 2.069960 52.463600 -12.104976 -26.823628 4.395558 2.549710 0.007482 -1.976173 3.658617 -0.069299 0.154466 -0.069070 -0.000000 0.000000 0.000000 0.000000 0.000000 0.000000 0.000000 
-18.151647 16.253686 -2.306519 -64.538441 85.921825 -42.717125 -13.059134 4.276267 0.682936 0.779342 7.099044 1.051009 0.594933 1.068705 24.220858 1.466633 5.999331 21.669319 2.202800 -0.000000 -77.262600 6.495530 -1.991273 6.095395 12.015159 11.952352 -56.371661 2.447239 -1.893156 28.268243 -1.417806 -6.129265 0.731177 -2.086100 -0.000000 -30.090800 10.940941 -4.523832 -6.197003 1.894399 -5.733371 -4.197500 -6.622475 -5.884810 0.652803 8.878395 -8.896736 -7.266973 -3.565567 -0.277232 0.132502 0.000000 0.000000 0.000000 -7.450590 -0.692064 2.222982 -59.549447 -23.126078 14.488993 -2.782162 -45.363726 -0.020166 5.852900 -1.307571 -0.080536 -0.140836 0.261834 -0.000000 0.000000 0.000000 0.000000 0.000000 0.000000 0.000000 14.562839 -9.513195 2.030360 52.579640 -11.285126 -26.332743 4.393461 2.621014 0.007521 -2.196961 3.767076 -0.078692 0.154087 -0.068436 -0.000000 0.000000 0.000000 0.000000 0.000000 0.000000 0.000000 
-17.948924 16.285345 -2.268562 -64.218449 85.619016 -42.428845 -13.128503 4.165420 0.688465 1.036092 7.330045 -0.259357 0.728573 1.109929 26.903772 1.653136 6.697483 22.976897 2.563300 0.000001 -72.382599 6.464453 -2.065637 6.062066 12.550134 12.101709 -55.659188 2.472930 -1.935918 28.857218 -1.421404 -5.950575 -0.143681 -1.916500 0.000000 -29.225500 11.135021 -4.423055 -6.212551 1.914147 -5.656801 -4.203257 -6.651296 -5.806993 0.649002 8.962266 -8.607229 -7.174912 -3.603816 -0.281036 0.157868 0.000000 0.000000 0.000000 -7.526729 -0.599519 2.192558 -60.014589 -22.374011 14.290189 -2.792814 -44.239721 -0.021043 6.264677 -1.341732 -0.087612 -0.139842 0.251889 0.000000 0.000000 0.000000 0.000000 0.000000 0.000000 0.000000 14.740594 -9.252201 1.987826 52.773769 -10.405284 -25.817296 4.385163 2.696674 0.007491 -2.467353 3.872870 -0.090186 0.153601 -0.067772 -0.000000 0.000000 0.000000 0.000000 0.000000 0.000000 0.000000 
-17.750479 16.319821 -2.229056 -63.539214 85.315464 -41.779292 -13.167891 4.033363 0.672153 1.204297 7.606368 -1.706857 0.827446 1.148707 29.722344 1.841369 7.659598 23.853939 3.052000 -0.000000 -67.371500 6.453551 -2.125486 6.041623 13.048242 12.239852 -54.860920 2.511018 -1.950594 29.245203 -1.428004 -5.773073 -1.055998 -1.747501 0.000000 -28.359000 11.273567 -4.310494 -6.221022 1.918849 -5.563677 -4.205003 -6.688806 -5.712376 0.651467 9.062338 -8.305415 -7.077437 -3.645342 -0.285090 0.184465 0.000000 0.000000 0.000000 -7.578990 -0.498156 2.163855 -60.459135 -21.643710 14.109666 -2.802482 -43.034502 -0.021708 6.654595 -1.340066 -0.092292 -0.138217 0.241164 0.000000 0.000000 0.000000 0.000000 0.000000 0.000000 0.000000 14.949685 -8.974084 1.944755 53.047628 -9.453547 -25.349977 4.368564 2.746357 0.007449 -2.777246 3.999163 -0.103979 0.152915 -0.067415 -0.000000 0.000000 0.000000 0.000000 0.000000 0.000000 0.000000 
-17.557118 16.357241 -2.188152 -62.476461 85.013590 -40.743011 -13.175574 3.886562 0.634556 1.269242 7.903024 -3.276140 0.894898 1.194312 32.637979 2.028993 8.896527 24.286391 3.670400 -0.000000 -62.532101 6.464168 -2.168363 6.031131 13.497893 12.364123 -53.991977 2.556419 -1.939579 29.443820 -1.438900 -5.612727 -1.958384 -1.587600 0.000000 -27.548100 11.351573 -4.187059 -6.219259 1.907604 -5.454034 -4.202598 -6.734796 -5.601110 0.658034 9.178049 -7.991936 -6.977427 -3.690423 -0.289382 0.211368 0.000000 0.000000 0.000000 -7.602558 -0.390007 2.138160 -60.886112 -20.928352 13.932081 -2.810911 -41.767258 -0.022137 7.011126 -1.302434 -0.094277 -0.135888 0.229896 0.000000 0.000000 0.000000 0.000000 0.000000 0.000000 0.000000 15.191170 -8.676205 1.903685 53.401481 -8.435364 -24.885499 4.344135 2.799721 0.007358 -3.123727 4.132228 -0.120071 0.152039 -0.067291 -0.000000 0.000000 0.000000 0.000000 0.000000 0.000000 0.000000 
-17.368710 16.397630 -2.146502 -61.113895 84.709223 -39.403544 -13.157139 3.729189 0.576589 1.237256 8.201845 -4.951345 0.937614 1.254125 35.612564 2.214560 10.375200 24.278996 4.388700 0.000000 -58.069900 6.490647 -2.196274 6.028450 13.900234 12.480673 -53.057787 2.606197 -1.904272 29.456414 -1.455409 -5.487142 -2.806579 -1.444700 0.000000 -26.840300 11.378626 -4.053943 -6.204187 1.882909 -5.329381 -4.196232 -6.787939 -5.474842 0.666687 9.303169 -7.663575 -6.877075 -3.738566 -0.293842 0.237817 0.000000 0.000000 0.000000 -7.604011 -0.271194 2.117678 -61.294464 -20.227768 13.748538 -2.818295 -40.458172 -0.022335 7.326448 -1.229652 -0.093064 -0.132880 0.218369 0.000000 0.000000 0.000000 0.000000 0.000000 0.000000 0.000000 15.455970 -8.352502 1.866760 53.832532 -7.349297 -24.423599 4.311795 2.862587 0.007223 -3.495329 4.273783 -0.138161 0.150941 -0.067481 -0.000000 0.000000 0.000000 0.000000 0.000000 0.000000 0.000000 
-17.185336 16.440969 -2.104729 -59.550116 84.399797 -37.859703 -13.119163 3.564146 0.501918 1.118586 8.478516 -6.713039 0.964006 1.332111 38.599141 2.398866 12.043179 23.873401 5.162600 -0.000000 -54.228900 6.526750 -2.211722 6.030816 14.258157 12.595152 -52.061705 2.658034 -1.846301 29.288422 -1.477622 -5.407171 -3.565854 -1.323500 0.000000 -26.264500 11.366083 -3.912886 -6.174371 1.847764 -5.192093 -4.186909 -6.846423 -5.336135 0.673621 9.430072 -7.312487 -6.775562 -3.789346 -0.298444 0.263951 0.000000 0.000000 0.000000 -7.591601 -0.144768 2.104635 -61.682289 -19.529970 13.548550 -2.824227 -39.134808 -0.022323 7.595039 -1.123459 -0.088552 -0.129211 0.206846 0.000000 0.000000 0.000000 0.000000 0.000000 0.000000 0.000000 15.732677 -7.993411 1.835879 54.337238 -6.198902 -23.986334 4.271691 2.931161 0.007072 -3.873214 4.432886 -0.158051 0.149561 -0.068126 -0.000000 0.000000 0.000000 0.000000 0.000000 0.000000 0.000000 
-17.006943 16.487065 -2.063198 -57.845225 84.086865 -36.174705 -13.066018 3.395125 0.413638 0.920403 8.713572 -8.540522 0.980870 1.430623 41.557853 2.580621 13.819631 23.103540 5.928600 -0.000000 -51.098600 6.569728 -2.215020 6.032994 14.570118 12.705233 -51.006936 2.709560 -1.768322 28.955514 -1.503444 -5.370501 -4.217455 -1.224000 -0.000000 -25.826700 11.317270 -3.766829 -6.125786 1.803445 -5.044864 -4.174574 -6.908942 -5.187805 0.676601 9.554822 -6.937047 -6.673633 -3.842463 -0.303148 0.289488 0.000000 0.000000 0.000000 -7.568542 -0.010782 2.100416 -62.048995 -18.830432 13.329255 -2.828922 -37.818510 -0.022124 7.815487 -0.991016 -0.081139 -0.124992 0.195566 0.000000 0.000000 0.000000 0.000000 0.000000 0.000000 0.000000 16.016411 -7.596102 1.811993 54.909156 -4.989005 -23.551101 4.224909 3.020514 0.006897 -4.241687 4.605557 -0.179138 0.147891 -0.069207 -0.000000 0.000000 0.000000 0.000000 0.000000 0.000000 0.000000 
-16.833404 16.535692 -2.022246 -56.078041 83.773949 -34.430205 -13.002604 3.224618 0.316553 0.654855 8.888355 -10.412307 0.994623 1.548787 44.445106 2.758051 15.615009 22.023001 6.622201 -0.000000 -48.707500 6.616258 -2.207578 6.030529 14.837058 12.808800 -49.894675 2.759519 -1.672767 28.472286 -1.530638 -5.371537 -4.753837 -1.145000 0.000000 -25.512800 11.237245 -3.618993 -6.057182 1.751739 -4.891095 -4.159879 -6.973717 -5.033392 0.672864 9.672312 -6.532847 -6.569598 -3.897463 -0.307930 0.314885 0.000000 0.000000 0.000000 -7.539742 0.127091 2.106247 -62.391998 -18.119309 13.092055 -2.832406 -36.532228 -0.021767 7.988069 -0.839046 -0.071523 -0.120343 0.184708 0.000000 0.000000 0.000000 0.000000 0.000000 0.000000 0.000000 16.299716 -7.156249 1.795374 55.541582 -3.725019 -23.127521 4.172417 3.129167 0.006724 -4.579587 4.798518 -0.200923 0.145896 -0.070794 -0.000000 0.000000 0.000000 0.000000 0.000000 0.000000 0.000000 
